<?xml version="1.0" encoding="UTF-8" standalone="no"?>
<!-- Created with Inkscape (http://www.inkscape.org/) -->

<svg version="1.1" id="svg2" width="34" height="20" viewBox="0 0 255.72 162.90668"
   sodipodi:docname="logo-seo-kueche-grau.eps" xmlns:inkscape="http://www.inkscape.org/namespaces/inkscape"
   xmlns:sodipodi="http://sodipodi.sourceforge.net/DTD/sodipodi-0.dtd" xmlns="http://www.w3.org/2000/svg"
   xmlns:svg="http://www.w3.org/2000/svg">
   <defs id="defs6" />
   <sodipodi:namedview id="namedview4" pagecolor="#ffffff" bordercolor="#000000" borderopacity="0.25"
      inkscape:showpageshadow="2" inkscape:pageopacity="0.0" inkscape:pagecheckerboard="0"
      inkscape:deskcolor="#d1d1d1" />
   <g id="g8" inkscape:groupmode="layer" inkscape:label="ink_ext_XXXXXX"
      transform="matrix(1.3333333,0,0,-1.3333333,0,162.90667)">
      <g id="g10" transform="scale(0.1)">
         <path
            d="m 249.043,1217.68 c -12.793,0 -23.184,-10.31 -23.184,-22.97 0,-0.23 0.196,-0.39 0.196,-0.47 V 982.992 c 0,-18.496 -14.981,-33.554 -33.594,-33.554 -18.535,0 -33.574,15.058 -33.574,33.554 h -0.293 v 211.718 c 0,12.38 -10.078,22.48 -22.598,22.48 -12.383,0 -22.519,-10.1 -22.519,-22.48 V 982.992 c 0,-18.496 -15.0004,-33.554 -33.5942,-33.554 -18.457,0 -33.5351,15.058 -33.5351,33.554 h -0.293 v 211.718 c 0,12.66 -10.3711,22.97 -23.0859,22.97 C 10.2734,1217.68 0,1207.37 0,1194.71 V 961.547 C 0,901.684 38.6523,851.02 92.4023,832.738 V 43.6719 C 92.4023,19.5508 111.895,0 135.996,0 c 24.219,0 43.711,19.5508 43.711,43.6719 V 832.738 c 53.691,18.282 92.441,68.946 92.441,128.809 v 233.163 h -0.156 c 0,12.66 -10.254,22.97 -22.949,22.97"
            style="fill:#7b7979;fill-opacity:1;fill-rule:nonzero;stroke:none" id="path12" />
         <path
            d="m 1780.8,1176.53 c -46.99,-46.82 -41.8,-105.2 -41.8,-105.2 V 597.797 h 93.17 V 43.1992 c 0,-23.6094 19.26,-42.769512 42.91,-42.769512 23.67,0 42.85,19.160112 42.85,42.769512 V 1216.8 c 0,0 -88.87,8.01 -137.13,-40.27"
            style="fill:#7b7979;fill-opacity:1;fill-rule:nonzero;stroke:none" id="path14" />
         <path
            d="m 494.883,825.434 v -16.465 c 0,-52.559 14.941,-86.328 74.57,-86.328 34.531,0 67.5,21.992 67.5,69.062 0,51.016 -25.898,69.844 -100.43,95.742 -100.488,34.532 -146.777,76.114 -146.777,169.535 0,109.08 66.699,164.8 173.457,164.8 100.449,0 173.418,-43.2 173.418,-150.68 v -15.74 H 628.32 c 0,52.63 -18.047,83.22 -61.211,83.22 -51.015,0 -64.355,-32.19 -64.355,-65.14 0,-34.55 10.215,-55.72 58.066,-76.112 l 87.129,-37.676 c 84.746,-36.894 106.719,-80.078 106.719,-148.339 0,-118.477 -72.207,-171.856 -194.629,-171.856 -127.93,0 -178.164,59.629 -178.164,163.242 v 22.735 h 113.008"
            style="fill:#7b7979;fill-opacity:1;fill-rule:nonzero;stroke:none" id="path16" />
         <path
            d="m 1150.96,1210.79 v -92.64 H 950.859 V 986.332 H 1139.22 V 893.734 H 950.859 V 743.07 H 1158.83 V 650.434 H 837.852 v 560.356 h 313.108"
            style="fill:#7b7979;fill-opacity:1;fill-rule:nonzero;stroke:none" id="path18" />
         <path
            d="m 1420.9,722.641 c 66.74,0 77.69,57.285 77.69,207.968 0,149.901 -10.95,207.971 -77.69,207.971 -66.68,0 -77.68,-58.07 -77.68,-207.971 0,-150.683 11,-207.968 77.68,-207.968 z m 0,499.139 c 169.51,0 190.66,-120.88 190.66,-291.171 0,-170.293 -21.15,-291.152 -190.66,-291.152 -169.49,0 -190.69,120.859 -190.69,291.152 0,170.291 21.2,291.171 190.69,291.171"
            style="fill:#7b7979;fill-opacity:1;fill-rule:nonzero;stroke:none" id="path20" />
         <path
            d="M 454.434,557.945 V 422.422 h 0.918 l 86.269,135.523 h 73.945 l -91.972,-145 L 625.957,219.59 H 549.18 L 479.531,358.438 454.434,320.035 V 219.59 h -68.262 v 338.355 h 68.262"
            style="fill:#7b7979;fill-opacity:1;fill-rule:nonzero;stroke:none" id="path22" />
         <path
            d="m 1040.14,443.77 c 0,49.253 -9.94,70.566 -40.745,70.566 -34.59,0 -42.676,-34.57 -42.676,-130.313 0,-102.343 14.238,-120.824 43.611,-120.824 24.65,0 42.62,12.793 42.62,85.766 h 68.26 c 0,-72.973 -18.01,-135.996 -107.56,-135.996 -102.361,0 -115.173,72.969 -115.173,175.801 0,102.847 12.812,175.781 115.173,175.781 97.6,0 104.69,-71.528 104.69,-120.781 h -68.2"
            style="fill:#7b7979;fill-opacity:1;fill-rule:nonzero;stroke:none" id="path24" />
         <path
            d="m 1150.08,557.945 h 68.22 V 428.57 h 79.61 v 129.375 h 68.24 V 219.59 h -68.24 V 369.82 H 1218.3 V 219.59 h -68.22 v 338.355"
            style="fill:#7b7979;fill-opacity:1;fill-rule:nonzero;stroke:none" id="path26" />
         <path
            d="m 1602.62,557.945 v -55.918 h -120.86 v -79.605 h 113.71 v -55.899 h -113.71 v -91 H 1607.3 V 219.59 h -193.75 v 338.355 h 189.07"
            style="fill:#7b7979;fill-opacity:1;fill-rule:nonzero;stroke:none" id="path28" />
         <path d="m 704.629,557.945 h -68.223 v -33.14 h 68.223 v 33.14"
            style="fill:#7b7979;fill-opacity:1;fill-rule:nonzero;stroke:none" id="path30" />
         <path
            d="m 784.219,321.949 c 0,-33.633 -8.028,-58.75 -39.785,-58.75 -31.758,0 -39.805,25.117 -39.805,58.75 V 499.805 H 636.406 V 321.949 c 0,-90.508 52.598,-108.98 108.028,-108.98 55.41,0 108.027,22.754 108.027,108.98 V 499.805 H 784.219 V 321.949"
            style="fill:#7b7979;fill-opacity:1;fill-rule:nonzero;stroke:none" id="path32" />
         <path d="m 784.219,557.945 v -33.14 h 68.242 v 33.14 h -68.242"
            style="fill:#7b7979;fill-opacity:1;fill-rule:nonzero;stroke:none" id="path34" />
         <path
            d="m 406.148,39.7188 c 0.571,-14.4493 13.11,-19 26.407,-19 10.066,0 23.742,2.2812 23.742,14.621 0,12.5391 -15.957,14.629 -32.102,18.2422 -15.957,3.6172 -32.105,8.9297 -32.105,27.7383 0,19.7497 19.566,27.9297 36.664,27.9297 21.656,0 38.945,-6.852 40.273,-30.7812 H 452.879 C 451.742,91 440.723,95 430.082,95 c -9.687,0 -20.894,-2.668 -20.894,-12.5391 0,-11.5898 17.097,-13.4921 32.105,-17.1015 16.148,-3.6094 32.105,-8.9297 32.105,-27.9297 0,-23.3594 -21.847,-30.96095 -41.793,-30.96095 -22.039,0 -40.652,8.92965 -41.605,33.25005 h 16.148"
            style="fill:#7b7979;fill-opacity:1;fill-rule:nonzero;stroke:none" id="path36" />
         <path
            d="M 557.566,67.2617 C 556.813,82.6484 545.219,95 529.262,95 512.359,95 502.289,82.2617 501.148,67.2617 Z M 573.148,39.8984 C 568.777,18.25 553.203,6.46875 531.16,6.46875 c -31.34,0 -46.16,21.65235 -47.109,51.67185 0,29.4492 19.375,51.1094 46.164,51.1094 34.765,0 45.398,-32.4883 44.453,-56.2305 h -73.52 c -0.574,-17.0976 9.122,-32.3007 30.586,-32.3007 13.301,0 22.606,6.4609 25.457,19.1796 h 15.957"
            style="fill:#7b7979;fill-opacity:1;fill-rule:nonzero;stroke:none" id="path38" />
         <path
            d="m 631.859,20.7188 c 16.911,0 30.586,13.2929 30.586,37.0429 C 662.445,81.6992 648.77,95 631.859,95 c -16.91,0 -30.586,-13.3008 -30.586,-37.2383 0,-23.75 13.676,-37.0429 30.586,-37.0429 z m 0,88.5312 c 31.157,0 47.688,-22.6094 47.688,-51.4883 0,-28.6914 -16.531,-51.29295 -47.688,-51.29295 -31.156,0 -47.679,22.60155 -47.679,51.29295 0,28.8789 16.523,51.4883 47.679,51.4883"
            style="fill:#7b7979;fill-opacity:1;fill-rule:nonzero;stroke:none" id="path40" />
         <path d="m 693.992,69.1602 h 54.903 V 53.9609 h -54.903 v 15.1993"
            style="fill:#7b7979;fill-opacity:1;fill-rule:nonzero;stroke:none" id="path42" />
         <path
            d="m 769.613,144.391 h 16.149 V 64.0313 l 44.828,42.9297 h 21.66 L 813.305,71.25 855.098,8.75 h -20.52 L 800.957,60.0391 785.762,45.9805 V 8.75 h -16.149 v 135.641"
            style="fill:#7b7979;fill-opacity:1;fill-rule:nonzero;stroke:none" id="path44" />
         <path
            d="m 946.68,8.75 h -15.2 v 15.5703 h -0.378 c -6.84,-12.1484 -17.86,-17.85155 -31.918,-17.85155 -25.836,0 -33.813,14.82035 -33.813,35.90235 V 106.961 H 881.52 V 40.4805 c 0,-11.9805 7.597,-19.7617 19.945,-19.7617 19.57,0 29.066,13.1132 29.066,30.7695 V 106.961 H 946.68 V 8.75"
            style="fill:#7b7979;fill-opacity:1;fill-rule:nonzero;stroke:none" id="path46" />
         <path
            d="M 1037.31,67.2617 C 1036.55,82.6484 1024.96,95 1009,95 992.098,95 982.031,82.2617 980.887,67.2617 Z m 15.58,-27.3633 C 1048.51,18.25 1032.94,6.46875 1010.91,6.46875 c -31.351,0 -46.168,21.65235 -47.117,51.67185 0,29.4492 19.379,51.1094 46.157,51.1094 34.77,0 45.41,-32.4883 44.45,-56.2305 h -73.513 c -0.567,-17.0976 9.121,-32.3007 30.583,-32.3007 13.31,0 22.61,6.4609 25.46,19.1796 h 15.96"
            style="fill:#7b7979;fill-opacity:1;fill-rule:nonzero;stroke:none" id="path48" />
         <path
            d="M 1135.92,75.4297 C 1133.45,87.7695 1124.9,95 1111.6,95 c -23.37,0 -30.59,-18.4297 -30.59,-38.3789 0,-18.0508 8.18,-35.9023 28.7,-35.9023 15.57,0 24.88,9.1132 26.97,23.9414 h 16.52 c -3.6,-23.9414 -18.61,-38.19145 -43.31,-38.19145 -30.02,0 -45.97,20.89065 -45.97,50.15235 0,29.4375 15.2,52.6289 46.35,52.6289 22.23,0 40.08,-10.4492 42.37,-33.8203 h -16.72"
            style="fill:#7b7979;fill-opacity:1;fill-rule:nonzero;stroke:none" id="path50" />
         <path
            d="m 1169.37,144.391 h 16.15 V 92.5313 h 0.37 c 5.32,11.7777 19.19,16.7187 30.96,16.7187 25.84,0 33.82,-14.8281 33.82,-35.9102 V 8.75 h -16.15 v 66.4883 c 0,11.9726 -7.6,19.7617 -19.94,19.7617 -19.57,0 -29.06,-13.1211 -29.06,-30.7812 V 8.75 h -16.15 v 135.641"
            style="fill:#7b7979;fill-opacity:1;fill-rule:nonzero;stroke:none" id="path52" />
         <path
            d="M 1341.31,67.2617 C 1340.55,82.6484 1328.95,95 1313,95 c -16.91,0 -26.98,-12.7383 -28.12,-27.7383 z m 15.57,-27.3633 C 1352.51,18.25 1336.93,6.46875 1314.9,6.46875 c -31.35,0 -46.16,21.65235 -47.12,51.67185 0,29.4492 19.39,51.1094 46.17,51.1094 34.76,0 45.41,-32.4883 44.45,-56.2305 h -73.52 c -0.56,-17.0976 9.12,-32.3007 30.59,-32.3007 13.3,0 22.61,6.4609 25.46,19.1796 h 15.95"
            style="fill:#7b7979;fill-opacity:1;fill-rule:nonzero;stroke:none" id="path54" />
         <path d="m 1376.84,29.832 h 21.09 V 8.75 h -21.09 v 21.082"
            style="fill:#7b7979;fill-opacity:1;fill-rule:nonzero;stroke:none" id="path56" />
         <path
            d="m 1466.34,20.7188 c 21.65,0 30.01,18.6093 30.01,37.0429 0,19.3789 -8.74,37.2383 -30.97,37.2383 -22.03,0 -29.44,-18.8086 -29.44,-38 0,-18.4297 9.5,-36.2812 30.4,-36.2812 z M 1511.92,8.75 h -16.14 v 13.3008 h -0.38 c -5.32,-10.832 -17.86,-15.58205 -31.35,-15.58205 -30.2,0 -45.21,23.94145 -45.21,51.67185 0,27.7383 14.82,51.1094 44.83,51.1094 10.07,0 24.51,-3.801 31.73,-15.3906 h 0.38 v 50.5316 h 16.14 V 8.75"
            style="fill:#7b7979;fill-opacity:1;fill-rule:nonzero;stroke:none" id="path58" />
         <path
            d="M 1603.13,67.2617 C 1602.36,82.6484 1590.77,95 1574.81,95 1557.91,95 1547.84,82.2617 1546.7,67.2617 Z M 1618.7,39.8984 C 1614.33,18.25 1598.75,6.46875 1576.72,6.46875 c -31.35,0 -46.16,21.65235 -47.12,51.67185 0,29.4492 19.38,51.1094 46.16,51.1094 34.77,0 45.41,-32.4883 44.45,-56.2305 h -73.51 c -0.57,-17.0976 9.12,-32.3007 30.59,-32.3007 13.3,0 22.6,6.4609 25.45,19.1796 h 15.96"
            style="fill:#7b7979;fill-opacity:1;fill-rule:nonzero;stroke:none" id="path60" />
      </g>
   </g>
</svg>